<svg width="1000" height="750"><g><path d="M 49 5 L 49 705 M 49 689.2253804929802 l 0 -4 M 49 633.5211504108169 l 0 -4 M 49 577.8169203286534 l 0 -4 M 49 522.11269024649 l 0 -4 M 49 466.40846016432675 l 0 -4 M 49 410.70423008216335 l 0 -4 M 49 355 l 0 -4 M 49 299.2957699178366 l 0 -4 M 49 243.59153983567327 l 0 -4 M 49 187.8873097535099 l 0 -4 M 49 132.18307967134652 l 0 -4 M 49 76.47884958918316 l 0 -4 M 49 20.774619507019782 l 0 -4" stroke="black" stroke-width="2"></path><g style="fill:black;font-size:13px"><text x="20" y="694.2253804929802">-3.0</text><text x="20" y="638.5211504108169">-2.5</text><text x="20" y="582.8169203286534">-2.0</text><text x="20" y="527.11269024649">-1.5</text><text x="20" y="471.40846016432675">-1.0</text><text x="20" y="415.70423008216335">-0.5</text><text x="20" y="360">0.0</text><text x="20" y="304.2957699178366">0.5</text><text x="20" y="248.59153983567327">1.0</text><text x="20" y="192.8873097535099">1.5</text><text x="20" y="137.18307967134652">2.0</text><text x="20" y="81.47884958918316">2.5</text><text x="20" y="25.774619507019782">3.0</text><text transform="rotate(-90)" x="-364.4" y="10">CV_2</text></g></g><g transform="translate(945,0)"><path d="M 1 7 l 1 696 l 15 0 l 0 -696 l -15 0 M 15 7 l 5 0 M 15 79.78728706238 l 5 0 M 15 152.57457412476 l 5 0 M 15 225.36186118714 l 5 0 M 15 298.14914824952 l 5 0 M 15 370.9364353119 l 5 0 M 15 443.72372237428 l 5 0 M 15 516.5110094366601 l 5 0 M 15 589.29829649904 l 5 0 M 15 662.08558356142 l 5 0" stroke="black" stroke-width="2"></path><g style="fill:black;font-size:13px"><text x="22" y="12">0</text><text x="22" y="84.78728706238">-5</text><text x="22" y="157.57457412476">-10</text><text x="22" y="230.36186118714">-15</text><text x="22" y="303.14914824952">-20</text><text x="22" y="375.9364353119">-25</text><text x="22" y="448.72372237428">-30</text><text x="22" y="521.5110094366601">-35</text><text x="22" y="594.29829649904">-40</text><text x="22" y="667.08558356142">-45</text><text transform="rotate(-90)" y="50" x="-390.25">Energy [kJ/mol]</text></g></g><g transform="translate(50,710)"><path d="M 5 1 L 890 1 M 24.943626091017865 1 l 0 9 M 95.36968840918156 1 l 0 9 M 165.79575072734525 1 l 0 9 M 236.22181304550895 1 l 0 9 M 306.64787536367265 1 l 0 9 M 377.0739376818363 1 l 0 9 M 447.5 1 l 0 9 M 517.9260623181636 1 l 0 9 M 588.3521246363274 1 l 0 9 M 658.778186954491 1 l 0 9 M 729.2042492726547 1 l 0 9 M 799.6303115908185 1 l 0 9 M 870.0563739089821 1 l 0 9" stroke="black" stroke-width="2"></path><g style="fill:black;font-size:13px"><text x="14.943626091017865" y="20">-3.0</text><text x="85.36968840918156" y="20">-2.5</text><text x="155.79575072734525" y="20">-2.0</text><text x="226.22181304550895" y="20">-1.5</text><text x="296.64787536367265" y="20">-1.0</text><text x="367.0739376818363" y="20">-0.5</text><text x="437.5" y="20">0.0</text><text x="507.92606231816364" y="20">0.5</text><text x="578.3521246363274" y="20">1.0</text><text x="648.778186954491" y="20">1.5</text><text x="719.2042492726547" y="20">2.0</text><text x="789.6303115908185" y="20">2.5</text><text x="860.0563739089821" y="20">3.0</text><text x="437.5" y="35">axis X</text></g></g><image width="885" height="700" x="55" y="5"></image></svg>